<?xml version="1.0" standalone="no"?>
<!DOCTYPE svg PUBLIC "-//W3C//DTD SVG 20010904//EN"
 "http://www.w3.org/TR/2001/REC-SVG-20010904/DTD/svg10.dtd">
<svg version="1.0" xmlns="http://www.w3.org/2000/svg"
 width="1280.000000pt" height="1280.000000pt" viewBox="0 0 1280.000000 1280.000000"
 preserveAspectRatio="xMidYMid meet">
<g transform="translate(0.000000,1280.000000) scale(0.100000,-0.100000)"
fill="#000000" stroke="none">
<path d="M3431 9397 c-52 -20 -90 -72 -163 -229 -37 -79 -151 -318 -254 -533
-103 -214 -208 -435 -234 -490 -122 -257 -379 -794 -591 -1235 -223 -465 -233
-488 -233 -545 -1 -72 24 -120 81 -157 74 -47 615 -299 666 -310 61 -12 119 0
162 34 18 14 52 71 91 153 34 71 130 274 214 450 84 176 167 352 185 390 18
39 109 230 202 425 94 195 190 398 215 450 44 92 294 615 444 929 66 137 74
161 74 212 0 49 -5 64 -33 101 -36 48 -55 59 -450 248 -255 121 -302 135 -376
107z"/>
<path d="M9600 9403 c-8 -3 -78 -34 -155 -70 -310 -145 -501 -241 -522 -262
-37 -35 -56 -82 -56 -136 0 -44 20 -92 167 -400 92 -192 181 -379 198 -415 17
-36 67 -139 110 -230 139 -288 391 -815 528 -1105 432 -912 405 -862 492 -886
64 -17 121 -1 293 81 83 40 222 107 310 149 172 83 215 117 234 188 16 57 14
68 -25 157 -37 82 -61 133 -269 566 -65 135 -186 389 -270 565 -84 176 -208
435 -275 575 -176 368 -213 445 -258 540 -22 47 -90 190 -151 318 -61 128
-111 236 -111 241 0 23 -66 95 -103 112 -40 18 -104 24 -137 12z"/>
<path d="M6680 8739 c-324 -35 -610 -123 -819 -252 -33 -20 -45 -21 -605 -22
-314 -1 -586 -2 -603 -3 -32 -2 -35 -6 -128 -192 -52 -104 -95 -192 -95 -195
0 -3 11 -5 25 -5 16 0 25 -6 25 -16 0 -16 -954 -1920 -971 -1939 -6 -6 -16 -5
-29 3 -11 6 -22 12 -25 12 -10 0 -156 -303 -152 -314 6 -16 159 -208 236 -296
85 -97 111 -131 111 -140 0 -4 -35 -50 -77 -101 -43 -50 -89 -106 -103 -123
-13 -17 -48 -59 -77 -93 -62 -73 -86 -118 -103 -192 -16 -68 -8 -200 16 -261
64 -162 204 -280 378 -317 117 -24 241 2 336 72 58 42 68 34 45 -36 -12 -36
-16 -75 -13 -138 3 -77 7 -96 42 -166 89 -181 277 -299 471 -297 91 1 148 18
208 62 23 16 45 30 50 30 5 0 6 -17 3 -37 -32 -192 4 -312 131 -438 158 -157
383 -200 540 -104 18 11 51 43 75 72 68 83 71 81 72 -41 1 -84 5 -105 28 -155
60 -128 230 -247 364 -255 94 -6 149 16 219 88 37 39 63 59 74 56 9 -3 54 -10
100 -15 46 -6 98 -18 115 -27 305 -158 543 -137 746 66 42 41 93 103 114 138
22 34 43 62 48 62 5 0 59 -24 121 -54 156 -75 216 -90 359 -89 82 1 125 6 145
16 15 8 47 23 71 33 92 38 231 222 288 383 15 42 31 81 36 87 4 6 56 14 115
18 208 13 343 66 446 175 95 102 142 209 153 355 10 119 12 122 81 130 226 26
361 88 461 213 113 141 155 249 155 403 0 171 -33 273 -139 431 -55 82 -63
100 -55 120 5 13 48 113 96 221 l87 197 -32 68 c-18 37 -74 156 -125 263 -51
107 -170 357 -265 555 -178 371 -232 484 -342 715 -73 153 -169 353 -344 715
l-120 250 -40 2 c-82 5 -282 24 -359 34 -89 12 -540 122 -710 174 -285 86
-608 121 -855 94z"/>
</g>
</svg>
